<svg xmlns="http://www.w3.org/2000/svg" width="512" height="512" viewBox="0 0 512 512" fill="none">
  <rect width="512" height="512" rx="64" fill="#6366f1"/>
  <g transform="translate(64, 64)">
    <!-- Book icon -->
    <path d="M96 32H32C14.3 32 0 46.3 0 64v320c0 17.7 14.3 32 32 32h64c17.7 0 32-14.3 32-32V64c0-17.7-14.3-32-32-32z" fill="white" opacity="0.9"/>
    <path d="M352 32H288c-17.7 0-32 14.3-32 32v320c0 17.7 14.3 32 32 32h64c17.7 0 32-14.3 32-32V64c0-17.7-14.3-32-32-32z" fill="white" opacity="0.9"/>
    <path d="M224 64c-17.7 0-32 14.3-32 32v288c0 17.7 14.3 32 32 32s32-14.3 32-32V96c0-17.7-14.3-32-32-32z" fill="white"/>
    <!-- AI sparkle -->
    <circle cx="320" cy="96" r="8" fill="#fbbf24"/>
    <path d="M320 80l4 12 12 4-12 4-4 12-4-12-12-4 12-4z" fill="#fbbf24"/>
    <!-- Text lines -->
    <rect x="48" y="128" width="64" height="4" rx="2" fill="#e5e7eb"/>
    <rect x="48" y="144" width="48" height="4" rx="2" fill="#e5e7eb"/>
    <rect x="48" y="160" width="56" height="4" rx="2" fill="#e5e7eb"/>
    <rect x="304" y="128" width="64" height="4" rx="2" fill="#e5e7eb"/>
    <rect x="304" y="144" width="48" height="4" rx="2" fill="#e5e7eb"/>
    <rect x="304" y="160" width="56" height="4" rx="2" fill="#e5e7eb"/>
  </g>
</svg>
