<svg xmlns="http://www.w3.org/2000/svg" width="512" height="512" viewBox="0 0 512 512" fill="none">
  <g transform="translate(64, 64)">
    <!-- Book icon -->
    <path d="M96 32H32C14.3 32 0 46.3 0 64v320c0 17.7 14.3 32 32 32h64c17.7 0 32-14.3 32-32V64c0-17.7-14.3-32-32-32z" fill="black"/>
    <path d="M352 32H288c-17.7 0-32 14.3-32 32v320c0 17.7 14.3 32 32 32h64c17.7 0 32-14.3 32-32V64c0-17.7-14.3-32-32-32z" fill="black"/>
    <path d="M224 64c-17.7 0-32 14.3-32 32v288c0 17.7 14.3 32 32 32s32-14.3 32-32V96c0-17.7-14.3-32-32-32z" fill="black"/>
    <!-- AI sparkle -->
    <circle cx="320" cy="96" r="8" fill="black"/>
    <path d="M320 80l4 12 12 4-12 4-4 12-4-12-12-4 12-4z" fill="black"/>
  </g>
</svg>
